<svg xmlns="http://www.w3.org/2000/svg" width="256" height="256"><path fill="#1976D2" fill-opacity=".016" fill-rule="evenodd" d="M0 128.004v128.004l128.25-.254 128.25-.254.254-127.75L257.008 0H0zm.485.496c0 70.4.119 99.053.265 63.672s.146-92.98 0-128S.485 58.1.485 128.5"/><path fill="#1976D2" fill-opacity=".199" fill-rule="evenodd" d="M34.951 1.363C23.021 3.932 10.404 13.407 5.12 23.764-.054 33.906-.002 32.843.024 127.96c.016 56.02.396 90.151 1.036 92.925 3.715 16.114 17.477 29.575 33.739 32.999 7.391 1.556 178.958 1.564 186.402.008 15.894-3.322 27.788-14.378 33.274-30.93l2.473-7.462.026-89.25c.015-51.402-.351-89.25-.863-89.25-.488 0-1.201-1.687-1.584-3.75-1.888-10.179-13.349-23.99-23.925-28.832-3.003-1.375-8.08-2.929-11.281-3.453C210.374-.5 41.914-.137 34.951 1.363M145.479 38.25l-3.492 3.25 8.991 43c4.945 23.65 8.998 43.343 9.007 43.763.008.42 2.058 1.756 4.556 2.969 5.155 2.505 7.76 1.767 8.239-2.333.287-2.448-18.047-90.904-19.241-92.836-1.224-1.98-4.554-1.077-8.06 2.187M188 36.447c-3.166 1.731-13.688 13.603-14.914 16.826-.688 1.81.569 9.694 4.915 30.829 6.457 31.401 6.501 31.561 8.984 32.89 1.963 1.051 42.581-6.387 44.761-8.196.69-.573 1.254-2.289 1.254-3.814 0-3.552-10.672-54.5-11.894-56.784-1.841-3.439-4.859-5.169-15.96-9.146-12.409-4.445-13.483-4.608-17.146-2.605M.479 128c0 49.775.122 70.138.271 45.25.149-24.887.149-65.612 0-90.5C.601 57.863.479 78.225.479 128M189 46c-2.878 2.878-2.589 7.392.635 9.927C191.084 57.067 193.048 58 194 58s2.916-.933 4.365-2.073C203.449 51.929 200.547 44 194 44c-1.667 0-3.889.889-5 2m-59.5 3.693c-8.395 5.063-24.143 12.377-36.265 16.843l-10.266 3.783.584 3.09c.321 1.7 2.722 13.441 5.335 26.091l4.751 23 16.431.205c14.352.179 29.889 1.662 40.733 3.888 3.099.636 3.268.531 2.732-1.707-.314-1.312-3.938-18.586-8.053-38.386-9.024-43.426-8.357-40.508-9.251-40.462-.402.02-3.431 1.665-6.731 3.655m69.164 14.013c-1.334.344-1.682 1.087-1.272 2.718s-.236 3.011-2.366 5.051c-7.591 7.273-3.213 15.749 9.277 17.962 4.217.747 5.612 2.756 3.598 5.182-1.001 1.206-2.598 1.488-6.57 1.159-5.074-.421-5.268-.343-5.863 2.369-.847 3.853-.117 4.633 5.055 5.409 2.717.407 4.477 1.193 4.477 1.999 0 1.938 1.562 2.593 4.454 1.867 1.811-.454 2.546-1.307 2.546-2.953 0-1.274 1.35-3.665 3-5.315 3.227-3.227 4.028-8.365 1.919-12.305-1.187-2.219-8.226-5.792-11.478-5.827-1.132-.012-2.915-.648-3.962-1.414-3.126-2.286-.292-4.608 5.624-4.608 4.386 0 4.922-.251 5.505-2.573.807-3.218-.242-4.296-4.643-4.771-2.626-.284-3.542-.893-3.785-2.515-.314-2.107-1.608-2.444-5.516-1.435M62 75.71c-7.975 1.907-14.567 3.539-14.648 3.628-.246.269 9.509 46.857 9.892 47.239.318.318 30.884-3.64 31.515-4.081.805-.562-10.277-50.477-11.183-50.374-.592.068-7.601 1.682-15.576 3.588m104.872 7.369c1.341 7.035 1.707 7.85 2.834 6.308 1.984-2.713 1.585-8.748-.779-11.752-1.139-1.449-2.415-2.635-2.833-2.635s-.069 3.635.778 8.079M35.204 81.668c-7.544 1.786-12.542 6.16-14.238 12.46-.917 3.405-.751 5.914.937 14.103 2.905 14.097 5.732 18.081 14.747 20.782 5.342 1.601 15.35-.263 15.35-2.859 0-.937-2.021-11.368-4.491-23.179s-4.495-21.813-4.5-22.225c-.011-.922-.06-.917-7.805.918M74 128.989c-2.475.414-8.437 1.308-13.25 1.986-7.179 1.01-8.75 1.544-8.75 2.973 0 2.33 3.14 5.052 5.829 5.052 3.17 0 4.978 2.221 13.968 17.163C79.621 169.165 82.271 172 86.6 172c.828 0 5.585-1.221 10.57-2.713 9.675-2.896 12.597-5.294 11.328-9.292-.367-1.157-2.624-3.054-5.015-4.216-3.894-1.891-5.107-3.452-11.616-14.946-8.076-14.263-7.138-13.641-17.867-11.844m97.688 79.657c-1.374 1.374-.662 3.496 1.062 3.164.963-.186 1.75-.969 1.75-1.74 0-1.579-1.764-2.472-2.812-1.424M198 219.465c0 10.322.193 11.568 1.939 12.503 1.397.747 2.146.704 2.677-.156.406-.657.208-1.371-.439-1.586-.807-.269-1.177-3.826-1.177-11.309 0-9.037-.258-10.917-1.5-10.917-1.246 0-1.5 1.941-1.5 11.465m-138.524-9.069C55.79 212.002 54 215.642 54 221.531c0 6.349 4.14 10.924 9.885 10.924 2.518 0 4.743-.655 5.792-1.704 2.143-2.143.888-3.585-1.709-1.963-7.56 4.721-14.747-6.714-8.895-14.153 2.194-2.79 5.627-3.401 8.993-1.6 1.528.818 1.934.708 1.934-.525 0-1.481-3.772-3.555-6.315-3.471-.652.022-2.546.632-4.209 1.357M79 216.27c-5.208 2.684-6.23 10.402-1.897 14.323 2.815 2.548 8.822 2.218 11.113-.611 2.297-2.837 2.315-9.133.034-11.829-2.292-2.708-6.133-3.49-9.25-1.883m21.288.241c-1.365.956-2.386 1.139-2.781.5C95.853 214.335 95 216.713 95 224c0 6.328.304 8 1.452 8 1.08 0 1.529-1.576 1.75-6.146.313-6.458 1.91-8.792 5.162-7.545 1.284.493 1.636 2.035 1.636 7.16 0 5.043.331 6.531 1.452 6.531 1.08 0 1.529-1.576 1.75-6.146.332-6.838 2.235-9.325 5.548-7.245 1.294.812 1.828 2.701 2.048 7.245.221 4.57.67 6.146 1.75 6.146 1.091 0 1.452-1.35 1.452-5.435 0-9.692-2.611-12.903-8.217-10.106-2.625 1.309-3.156 1.31-4.453.014-1.868-1.868-3.334-1.859-6.042.038m27.076-.341c-2.408 1.166-4.364 4.821-4.364 8.155 0 5.045 5.461 9.181 10.386 7.864 3.918-1.048 3.616-2.725-.428-2.377-2.541.219-4.052-.258-5.348-1.69-2.651-2.93-1.188-4.122 5.057-4.122 5.545 0 5.549-.002 4.899-2.75-.744-3.142-4.008-6.282-6.427-6.182-.901.037-2.6.533-3.775 1.102m19.859.387c-1.246.872-2.223 1.092-2.223.5 0-.581-.675-1.057-1.5-1.057-1.208 0-1.5 1.556-1.5 8s.292 8 1.5 8c1.146 0 1.5-1.261 1.5-5.345 0-5.319 1.861-8.655 4.829-8.655.644 0 1.171-.675 1.171-1.5 0-1.911-.99-1.896-3.777.057m11.092-.55c-2.808 1.132-4.315 3.997-4.315 8.205 0 6.327 4.893 9.92 10.569 7.762 3.463-1.317 2.32-2.5-2.05-2.124-3.836.331-5.519-1.701-5.519-6.662 0-3.745 2.159-5.538 5.991-4.976 3.218.472 4.3-1.503 1.427-2.605-2.03-.779-3.399-.689-6.103.4m23.935.024c-3.564 1.433-2.627 2.649 1.969 2.555 6.2-.127 6.229 2.47.049 4.414-3.869 1.217-4.817 1.971-5.027 4-.39 3.761 1.145 5.36 4.921 5.127 1.836-.113 4.35-.235 5.588-.272 2.107-.062 2.25-.5 2.25-6.904 0-5.932-.294-7.044-2.223-8.394-2.48-1.738-4.212-1.858-7.527-.526M171 224c0 6.444.292 8 1.5 8s1.5-1.556 1.5-8-.292-8-1.5-8-1.5 1.556-1.5 8m-43.023-4.977c-3.015 3.015-2.405 3.977 2.523 3.977 4.419 0 5.484-1.019 3.735-3.573-1.515-2.212-4.272-2.39-6.258-.404m-48.734.134c-1.705 1.705-1.568 8.328.202 9.797 4.122 3.421 8.991-1.952 6.98-7.704-1.068-3.054-5.058-4.217-7.182-2.093m103.768 6.33c-1.939 2.336-.448 4.696 2.733 4.33 2.166-.249 2.824-.905 3.072-3.067.269-2.336-.051-2.75-2.127-2.75-1.344 0-3 .669-3.678 1.487"/><path fill="#1976D2" fill-opacity=".094" fill-rule="evenodd" d="M30.287 2.856C14.935 8.191 3.587 21.668.965 37.679-.361 45.772-.289 209.579 1.044 218c2.142 13.536 11.251 25.861 23.746 32.132l6.71 3.368h193l6.56-3.21c11.669-5.711 20.872-17.485 24.138-30.881 1.452-5.956 2.37-179.409.95-179.409-.487 0-1.126-1.799-1.421-3.997-1.59-11.853-12.272-25.525-24.453-31.294L223.5 1.5l-94-.228c-88.495-.214-94.305-.121-99.213 1.584M145.06 38.438l-3.332 3.438 7.726 37.312c11.613 56.084 9.955 50.166 14.639 52.233 4.331 1.911 8.332 1.52 9.262-.905.688-1.792-18.169-92.463-19.604-94.266-1.767-2.219-5.276-1.335-8.691 2.188m36.419 3.648c-4.019 3.897-7.865 8.431-8.546 10.076-1.086 2.621-.511 6.58 4.664 32.141 4.582 22.63 6.38 29.708 8.035 31.638l2.132 2.486 20.813-3.929c15.763-2.976 21.401-4.436 23.236-6.014l2.423-2.084-5.687-27.45c-3.128-15.097-6.166-28.699-6.75-30.226-1.482-3.87-4.727-5.833-16.624-10.058-14.488-5.144-14.929-5.08-23.696 3.42M.478 127.5c0 47.85.122 67.571.272 43.825.149-23.746.149-62.896 0-87S.478 79.65.478 127.5m188.977-81.045c-2.929 2.928-3.112 5.512-.611 8.601 3.714 4.586 12.156 1.66 12.156-4.212 0-2.569-4.373-6.844-7-6.844-1.15 0-3.195 1.105-4.545 2.455M132.5 47.628c-8.12 5.038-24.347 12.792-36.471 17.428-6.859 2.623-12.633 5.257-12.832 5.854-.199.596 1.985 12.504 4.854 26.461l5.216 25.376 19.117.507c10.847.288 23.782 1.264 29.902 2.258 5.932.962 11.026 1.51 11.319 1.216.561-.561-15.38-78.371-16.473-80.405-.444-.827-1.821-.439-4.632 1.305m67.75 16.14c-1.591.262-2.25 1.06-2.25 2.725 0 1.294-1.35 3.703-3 5.353-6.379 6.379-2.627 15.05 7.215 16.673 5.042.832 6.785 2.021 6.785 4.628 0 2.513-4.131 4.016-8.931 3.248-3.567-.57-3.828-.435-4.341 2.247-.652 3.413.489 4.322 5.455 4.343 2.831.011 3.833.491 4.335 2.073.947 2.983 5.97 2.337 6.011-.773.017-1.218 1.356-3.6 2.978-5.292 2.249-2.347 2.948-4.015 2.948-7.035 0-5.213-3.262-8.406-10.357-10.139-9.41-2.298-9.504-7.385-.134-7.248 4.592.067 4.885-.085 5.276-2.755.525-3.578.25-3.816-4.407-3.816-3.127 0-3.833-.357-3.833-1.941 0-2.321-.758-2.784-3.75-2.291M63.5 75.043c-6.05 1.554-11.986 2.855-13.191 2.891s-2.441.471-2.747.965c-.663 1.073 8.323 46.23 9.44 47.439.786.851 30.691-2.698 31.762-3.769.477-.477-7.658-42.728-9.399-48.819-.652-2.282-2.55-2.128-15.865 1.293m101.808 2.207c.289 1.237 1.044 4.838 1.679 8S168.488 91 168.91 91c1.061 0 3.09-4.66 3.09-7.097 0-2.791-2.604-7.537-4.545-8.282-2.492-.956-2.711-.79-2.147 1.629M34.667 81.434c-8.516 2.289-13.565 7.485-14.391 14.811-.735 6.518 3.222 23.005 6.438 26.827 3.363 3.997 9.317 6.934 13.996 6.904 3.735-.023 11.042-1.395 11.876-2.229.355-.354-7.934-42.494-9.145-46.497-.466-1.539-2.524-1.496-8.774.184m33.027 48.099c-8.693 1.235-16.039 2.478-16.323 2.763-.851.851 2.426 6.412 4.174 7.083.89.341 2.619.621 3.842.621 1.793 0 3.923 2.809 10.989 14.493 4.821 7.971 9.734 15.171 10.917 16 3.029 2.122 6.864 1.885 16.349-1.008 8.959-2.733 11.358-4.402 11.358-7.901 0-2.54-2.027-4.633-6.5-6.714-2.243-1.043-4.766-4.477-10-13.61-3.85-6.718-7.45-12.611-8-13.094-.582-.511-7.602.06-16.806 1.367m102.786 79.499c-.388.628-.235 1.613.34 2.188 1.344 1.344 4.477.172 3.93-1.471-.556-1.671-3.386-2.147-4.27-.717m26.52 9.534c0 11.259.888 14.434 4.035 14.434 2.043 0 2.71-2.421.965-3.5-.563-.348-1-5.177-1-11.059 0-9.774-.128-10.441-2-10.441-1.874 0-2 .667-2 10.566m-139.341-7.512c-6.09 4.79-5.725 16.106.645 19.99 3.869 2.359 6.809 2.466 10.816.394 2.354-1.217 2.776-1.859 1.909-2.903-.928-1.118-1.586-1.104-3.971.086-6.917 3.451-12.551-4.899-8.54-12.656 1.758-3.399 5.34-4.646 8.496-2.957s5.336-.515 2.545-2.575c-2.846-2.101-8.838-1.788-11.9.621m20.57 4.615c-1.656.667-4.229 5.676-4.229 8.234 0 4.982 4.067 9.097 8.991 9.097 1.044 0 3.15-1.077 4.681-2.394 5.762-4.957 2.232-15.715-5.096-15.527-1.692.043-3.648.309-4.347.59m16.193.675c-.284.739-.382 4.671-.219 8.739.245 6.108.602 7.454 2.047 7.73 1.522.29 1.75-.517 1.75-6.204 0-5.583.302-6.7 2.064-7.643 3.499-1.873 4.936.377 4.936 7.73 0 5.604.23 6.407 1.75 6.117 1.4-.267 1.809-1.562 2.046-6.488.305-6.353 1.873-9.05 4.644-7.986 1.045.401 1.552 2.515 1.763 7.351.242 5.53.622 6.851 2.047 7.123 1.541.294 1.75-.563 1.75-7.168 0-5.487-.422-7.924-1.571-9.074-2-1.999-5.809-2.023-7.45-.046-1.134 1.367-1.441 1.367-2.951 0-1.952-1.766-4.373-1.946-7.033-.522-1.252.67-2.079.67-2.493 0-.878-1.42-2.473-1.243-3.08.341m31.033 1.111c-5.002 5.001-1.77 15.57 4.75 15.531 3.924-.023 6.795-1.156 6.795-2.682 0-1.099-.732-1.302-2.941-.817-3.353.737-7.059-.85-7.059-3.022 0-1.109 1.336-1.465 5.5-1.465 5.444 0 5.5-.03 5.5-3 0-6.514-7.764-9.327-12.545-4.545M142 224.073c0 8.102.187 9.038 1.75 8.74 1.408-.268 1.809-1.574 2.05-6.679.284-5.997.463-6.407 3.25-7.459 3.168-1.196 4.03-3.675 1.279-3.675-.919 0-2.494.745-3.5 1.655-1.702 1.54-1.829 1.54-1.829 0 0-.91-.675-1.655-1.5-1.655-1.223 0-1.5 1.675-1.5 9.073m13.923-6.15C153.928 219.918 153 221.848 153 224s.928 4.082 2.923 6.077c3.054 3.053 5.876 3.636 9.143 1.888 3.071-1.644 2.345-3.214-1.133-2.45-2.226.489-3.597.194-5-1.076-4.19-3.792-.82-11.38 4.465-10.054 2.797.702 4.622-1.125 2.48-2.481-2.819-1.786-6.997-.938-9.955 2.019M171 224c0 8.173.186 9.111 1.75 8.808 1.503-.291 1.749-1.536 1.746-8.81-.004-7.264-.253-8.52-1.75-8.808-1.559-.301-1.746.646-1.746 8.81m10.676-8.141c-3.167 1.248-1.799 2.641 2.594 2.641 5.541 0 5.827 2.547.43 3.824-2.209.522-4.455 1.898-5.365 3.287-1.425 2.176-1.419 2.612.073 4.889 1.757 2.682 4.473 3.169 7.785 1.397 1.581-.846 2.255-.79 2.893.241 1.816 2.94 3.165-.853 2.73-7.68-.323-5.081-.882-7.033-2.312-8.079-2.012-1.471-5.841-1.697-8.828-.52m-102.608 4.015c-1.555 2.904-1.308 6.743.553 8.605 2.196 2.195 4.498 1.565 6.345-1.736 1.378-2.465 1.379-3.022.001-5.493-1.906-3.417-5.431-4.12-6.899-1.376m49.132-.674c-2.071 2.071-1.333 2.8 2.835 2.8 3.725 0 3.953-.154 2.965-2-1.197-2.237-3.979-2.621-5.8-.8m55.976 5.859c-1.444.578-2.197 1.592-1.989 2.675.728 3.781 6.813 2.123 6.813-1.856 0-2.046-1.239-2.257-4.824-.819"/><path fill="#1976D2" fill-opacity=".237" fill-rule="evenodd" d="M33.5 2.409C19.471 5.885 7.779 16.813 3.042 30.875.971 37.023.953 38.006 1.225 129.814l.275 92.73 3.235 6.57c4.087 8.301 9.551 14.495 16.403 18.594C31.929 254.163 29.157 254 128 254c96.188 0 95.095.053 105.205-5.105 6.467-3.299 14.465-11.976 18.086-19.621l3.209-6.774.27-92.424c.296-100.989.462-97.705-5.455-107.801-5.592-9.543-17.227-17.888-28.114-20.166-7.919-1.657-180.92-1.38-187.701.3M145.17 37.75l-3.915 3.75 5.837 27.91c3.21 15.351 7.297 35.078 9.082 43.84l3.246 15.929 4.874 2.47c4.557 2.309 5.032 2.367 7.29.888 1.329-.871 2.416-2.405 2.416-3.409s-2.05-11.457-4.555-23.227a9934 9934 0 0 1-9.523-45.401c-5.969-28.845-6.897-30.275-14.752-22.75m45.33-2.946c-3.058.668-5.084 2.366-12.068 10.121-5.084 5.644-6.434 7.815-6.441 10.358-.005 1.769 2.57 15.804 5.721 31.188 6.057 29.565 6.803 31.529 11.977 31.529 1.479 0 11.218-1.639 21.641-3.641 19.871-3.818 22.709-5.023 22.632-9.609-.02-1.237-2.647-14.518-5.836-29.512-4.727-22.219-6.226-27.715-8.106-29.717-3.521-3.747-25.273-11.645-29.52-10.717m.5 10.491c-3.177 1.589-3.957 6.99-1.415 9.799 3.61 3.989 10.415 1.225 10.415-4.232 0-4.967-4.561-7.788-9-5.567m-58.5 1.834c-6.193 4.092-26.407 13.745-37.5 17.908-6.325 2.373-11.809 4.574-12.187 4.889-.67.56 9.46 51.681 10.434 52.655.271.27 8.313.648 17.872.84 9.911.199 22.109 1.103 28.381 2.102 14.253 2.272 15.043 2.297 14.799.477-.542-4.038-16.409-79.369-16.877-80.126-.748-1.21-1.472-1.025-4.922 1.255m65.845 18.414c-.326.849-.32 1.816.013 2.149.334.333-.961 2.34-2.876 4.46-3.578 3.961-4.347 7.364-2.459 10.891 1.33 2.485 4.288 4.019 10.349 5.366 6.097 1.355 7.838 3.596 5.124 6.595-1.554 1.718-2.88 2.07-6.958 1.85-4.616-.248-5.066-.074-5.375 2.075-.42 2.917 1.259 4.036 6.087 4.056 3.078.012 3.75.373 3.75 2.015 0 1.1.638 2 1.418 2 2.809 0 4.354-1.155 3.895-2.911-.286-1.093.724-2.972 2.61-4.859 6.161-6.16 3.118-15.312-5.561-16.727-5.856-.956-8.362-2.262-8.362-4.359 0-2.949 2.498-4.334 7.199-3.99 3.871.282 4.335.077 4.638-2.057.391-2.746-1.225-4.06-5.02-4.082-1.796-.01-2.892-.676-3.317-2.015-.749-2.361-4.303-2.676-5.155-.457m-136.09 9.331c-12.317 2.929-15.247 3.955-15.25 5.341-.008 2.732 9.106 46.216 9.835 46.931.363.356 6.285-.195 13.16-1.224s13.936-1.882 15.691-1.896 3.409-.379 3.675-.81c.417-.675-8.446-45.591-9.958-50.466-.299-.963-.85-1.694-1.225-1.626-.376.067-7.543 1.755-15.928 3.75M165 76.022c0 1.151.424 3.979.942 6.285a859 859 0 0 1 1.585 7.193l.642 3 1.915-2.361c3.596-4.431 1.937-12.452-3.135-15.166-1.643-.88-1.949-.715-1.949 1.049M33.479 81.394c-5.819 1.823-8.81 4.07-11.29 8.483-2.617 4.656-2.796 10.107-.665 20.237 2.6 12.362 7.011 17.864 15.936 19.877 3.554.801 13.402-.526 14.934-2.012.523-.507-1.12-10.649-3.957-24.423L43.586 80l-3.043.067c-1.674.037-4.852.634-7.064 1.327m32.034 47.989c-15.262 2.319-16.355 3.006-12.527 7.872 1.302 1.656 3.25 2.737 5.285 2.933 2.988.289 3.874 1.384 12.176 15.043 11.474 18.879 11.923 19.154 24.942 15.292 5.011-1.487 10.063-3.308 11.228-4.049 4.745-3.016 3.367-8.856-2.647-11.218-3.674-1.443-4.718-2.784-11.618-14.921-8.758-15.404-5.712-14.161-26.839-10.952m105.609 78.895c-1.594 1.594-1.388 3.406.468 4.118 2.105.808 3.41-.091 3.41-2.348 0-2.237-2.342-3.306-3.878-1.77m-109.295.525c-3.169.373-7.622 4.534-8.471 7.914C51.291 224.943 56.511 233 63.905 233c4.604 0 9.286-3.155 7.452-5.022-.839-.854-1.684-.873-3.184-.071C62.432 230.98 58 227.895 58 220.826c0-6.038 2.393-8.305 7.977-7.556 4.285.575 5.907-.5 4.079-2.703-1.287-1.55-4.39-2.215-8.229-1.764M197 219.3c0 11.996.585 13.7 4.7 13.7 2.691 0 2.746-.228.917-3.8-.987-1.929-1.263-5.34-.965-11.95l.417-9.25H197zm-120.927-1.665c-6.101 7.756 1.279 18.237 10.382 14.744 2.225-.854 4.545-5.64 4.545-9.375 0-7.311-10.445-11.068-14.927-5.369M94 224c0 8.933.019 9 2.5 9 2.409 0 2.5-.236 2.5-6.465 0-5.457.314-6.633 2.015-7.543 2.507-1.342 2.839-.566 3.21 7.508.244 5.322.524 6.035 2.478 6.313 2.062.294 2.222-.122 2.5-6.5.284-6.521.404-6.813 2.797-6.813 2.391 0 2.513.296 2.796 6.75.259 5.93.533 6.75 2.25 6.75 1.604 0 1.986-.761 2.134-4.25.277-6.561-.222-11.096-1.375-12.485-1.259-1.517-5.217-1.65-7.81-.262-1.252.67-2.079.67-2.493 0-.865-1.399-6.848-1.257-8.302.197-.933.933-1.2.933-1.2 0 0-.66-.9-1.2-2-1.2-1.852 0-2 .667-2 9m30.49-5.805c-2.163 2.57-2.579 3.869-2.129 6.643 1.138 7.013 8.849 10.67 14.198 6.733 1.809-1.331 1.822-1.474.191-2.107-.963-.373-2.488-.395-3.391-.048-1.756.673-6.359-1.816-6.359-3.439 0-.537 2.475-.977 5.5-.977h5.5v-3.345c0-4.261-2.605-6.655-7.24-6.655-2.801 0-4.168.697-6.27 3.195m16.932-1.851c-.284.739-.382 4.676-.219 8.75.273 6.814.477 7.432 2.547 7.726 2.114.3 2.25-.035 2.25-5.55 0-6.081 1.112-8.27 4.2-8.27 1.133 0 1.8-.741 1.8-2 0-2.29-3.788-2.812-5.8-.8-.933.933-1.2.933-1.2 0 0-1.641-2.939-1.523-3.578.144m14.033 1.111c-5.373 5.372-1.731 15.545 5.565 15.545 3.935 0 7.058-1.634 6.4-3.348-.316-.822-2.09-1.287-4.713-1.235l-4.207.083-.304-4.186c-.246-3.383.089-4.396 1.75-5.285 1.415-.758 2.645-.783 3.954-.082 1.457.779 2.041.65 2.503-.556.959-2.497-.229-3.391-4.507-3.391-2.9 0-4.656.669-6.441 2.455m14.967-1.111c-.284.739-.382 4.676-.219 8.75.273 6.814.477 7.432 2.547 7.726 2.191.311 2.25.083 2.25-8.75 0-8.45-.139-9.07-2.031-9.07-1.118 0-2.264.605-2.547 1.344m10.019.089c-2.904 2.143-.652 4.076 2.877 2.468 2.082-.949 2.95-.923 4.213.124 1.39 1.155.997 1.545-3.142 3.116-4.932 1.872-6.348 3.213-6.374 6.038-.03 3.292 2.733 4.712 9 4.623l5.985-.085v-7.204c0-5.708-.38-7.546-1.829-8.858-2.248-2.035-8.11-2.156-10.73-.222m-101.084 4.144c-2.5 3.817-.859 7.923 3.167 7.923 2.746 0 3.001-.306 3.299-3.96.236-2.894-.152-4.308-1.441-5.25-2.47-1.806-3.104-1.644-5.025 1.287M128.2 219.2c-2.012 2.012-1.364 2.8 2.3 2.8 3.679 0 4.941-2.233 1.918-3.393-2.232-.857-2.856-.769-4.218.593m55.136 7.367c-.331.862-.14 2.029.424 2.593 1.337 1.337 5.24-.671 5.24-2.695 0-2-4.891-1.912-5.664.102"/></svg>