<?xml version="1.0" standalone="no"?>
<!DOCTYPE svg PUBLIC "-//W3C//DTD SVG 20010904//EN"
 "http://www.w3.org/TR/2001/REC-SVG-20010904/DTD/svg10.dtd">
<svg version="1.0" xmlns="http://www.w3.org/2000/svg"
 width="512.000000pt" height="512.000000pt" viewBox="0 0 512.000000 512.000000"
 preserveAspectRatio="xMidYMid meet">

<g transform="translate(0.000000,512.000000) scale(0.100000,-0.100000)"
fill="#000000" stroke="none">
<path d="M263 5042 c-264 -94 -268 -464 -6 -562 30 -11 69 -20 89 -20 49 0 95
-22 127 -59 22 -27 27 -42 27 -86 0 -46 -5 -60 -30 -89 -55 -62 -139 -71 -198
-21 -32 26 -47 58 -57 117 -11 69 -93 94 -135 41 -44 -56 -3 -191 79 -266 62
-56 97 -70 186 -75 106 -6 165 18 235 95 171 187 55 468 -205 498 -74 9 -110
27 -135 68 -58 95 10 217 120 217 81 0 130 -46 145 -137 12 -77 82 -107 132
-57 23 23 25 31 20 83 -17 189 -216 317 -394 253z"/>
<path d="M1102 5042 c-99 -36 -180 -125 -201 -222 -7 -31 -11 -186 -11 -399 0
-337 1 -349 21 -375 29 -37 89 -37 118 0 20 25 21 40 21 220 l0 194 150 0 150
0 0 -179 c0 -184 8 -234 40 -251 32 -17 75 -11 99 14 l22 23 -3 384 c-3 381
-3 384 -27 429 -75 144 -236 213 -379 162z m176 -162 c56 -34 72 -73 72 -172
l0 -88 -150 0 -150 0 0 83 c0 96 17 140 69 174 44 29 113 31 159 3z"/>
<path d="M1779 5047 c-38 -29 -39 -45 -39 -515 0 -450 0 -460 21 -486 l20 -26
268 0 c267 0 268 0 289 23 29 31 28 72 -3 102 -24 25 -25 25 -229 25 l-205 0
-3 426 -3 426 -24 19 c-26 21 -68 24 -92 6z"/>
<path d="M2555 5035 l-25 -24 0 -469 c0 -460 0 -470 21 -496 l20 -26 269 0
269 0 20 26 c28 35 26 69 -4 99 -24 25 -25 25 -230 25 l-205 0 0 145 0 145
205 0 c205 0 206 0 230 25 32 31 32 66 1 102 l-24 28 -206 3 -206 3 0 140 0
139 195 0 c207 0 235 5 254 47 17 37 13 62 -14 88 l-24 25 -261 0 -261 0 -24
-25z"/>
<path d="M4035 4325 c-24 -24 -31 -57 -19 -90 10 -26 55 -43 132 -51 40 -3 75
-10 77 -14 3 -4 -806 -430 -1797 -946 -990 -516 -1812 -947 -1824 -957 -51
-40 -18 -132 47 -130 24 0 298 139 964 486 2184 1140 2730 1424 2734 1421 1
-1 -3 -50 -10 -108 -13 -106 -13 -106 11 -131 42 -45 111 -30 129 27 14 46 53
361 49 399 -5 55 -32 66 -247 94 -107 14 -200 25 -208 25 -8 0 -25 -11 -38
-25z"/>
<path d="M4092 2950 l-22 -21 0 -1414 0 -1414 26 -20 c26 -21 37 -21 471 -21
l444 0 24 25 25 24 0 1406 0 1406 -25 24 -24 25 -449 0 c-437 0 -449 0 -470
-20z m808 -1430 l0 -1300 -340 0 -340 0 0 1300 0 1300 340 0 340 0 0 -1300z"/>
<path d="M2841 2531 c-11 -11 -23 -35 -26 -53 -3 -18 -4 -559 -3 -1201 l3
-1169 28 -24 28 -24 445 0 445 0 24 25 25 24 0 1196 0 1196 -25 24 -24 25
-451 0 c-432 0 -451 -1 -469 -19z"/>
<path d="M1590 1910 c-11 -11 -22 -30 -25 -42 -3 -13 -4 -414 -3 -891 l3 -869
28 -24 28 -24 443 0 c430 0 443 1 464 20 12 11 24 31 27 43 3 12 4 415 3 895
l-3 874 -24 19 c-22 18 -45 19 -472 19 -434 0 -450 -1 -469 -20z m810 -915 l0
-775 -340 0 -340 0 0 775 0 775 340 0 340 0 0 -775z"/>
<path d="M339 1341 l-29 -29 0 -591 c0 -411 3 -597 11 -614 6 -14 22 -30 36
-36 34 -15 872 -15 906 0 14 6 30 22 36 36 8 17 11 203 11 614 l0 591 -29 29
-29 29 -442 0 -442 0 -29 -29z"/>
</g>
</svg>
